# xmcd
#
# Track frame offsets: 
#        150
#        20575
#        34744
#        66286
#        102067
#
# Disc length: 1637 seconds
#
# Revision: 2
# Processed by: cddbd v1.5.2PL0 Copyright (c) Steve Scherf et al.
# Submitted via: ExactAudioCopy v1.0b3
#
DISCID=39066305
DTITLE=Coffins - March of Despair
DYEAR=2011
DGENRE=Death Metal
TTITLE0=Till Dawn of the Dooms Day
TTITLE1=Grotesque Messiah
TTITLE2=Carpet of Bones
TTITLE3=In Bloody Sewage
TTITLE4=Corpsegrinder
EXTD=
EXTT0=
EXTT1=
EXTT2=
EXTT3=
EXTT4=
PLAYORDER=
